<svg viewBox="0 0 64 64" fill="none" xmlns="http://www.w3.org/2000/svg">
<path d="M53.3335 10.667H10.6668C7.7335 10.667 5.36016 13.067 5.36016 16.0003L5.3335 48.0003C5.3335 50.9337 7.7335 53.3337 10.6668 53.3337H53.3335C56.2668 53.3337 58.6668 50.9337 58.6668 48.0003V16.0003C58.6668 13.067 56.2668 10.667 53.3335 10.667ZM50.6668 48.0003H13.3335C11.8668 48.0003 10.6668 46.8003 10.6668 45.3337V21.3337L29.1735 32.907C30.9068 34.0003 33.0935 34.0003 34.8268 32.907L53.3335 21.3337V45.3337C53.3335 46.8003 52.1335 48.0003 50.6668 48.0003ZM32.0002 29.3337L10.6668 16.0003H53.3335L32.0002 29.3337Z" fill="#F45320"/>
</svg>
