<svg viewBox="0 0 64 64" fill="none" xmlns="http://www.w3.org/2000/svg">
<path d="M31.9992 12.1279C38.4745 12.1279 39.2413 12.1563 41.7879 12.2699C44.1546 12.374 45.4326 12.7716 46.2846 13.103C47.4112 13.5384 48.2253 14.0686 49.0679 14.9111C49.9199 15.7631 50.4405 16.5678 50.876 17.6944C51.2074 18.5464 51.605 19.8339 51.7091 22.1911C51.8227 24.7471 51.8511 25.5139 51.8511 31.9798C51.8511 38.4551 51.8227 39.2219 51.7091 41.7685C51.605 44.1352 51.2074 45.4132 50.876 46.2652C50.4405 47.3917 49.9104 48.2059 49.0679 49.0484C48.2158 49.9004 47.4112 50.4211 46.2846 50.8566C45.4326 51.1879 44.1451 51.5855 41.7879 51.6897C39.2318 51.8033 38.465 51.8317 31.9992 51.8317C25.5239 51.8317 24.7571 51.8033 22.2105 51.6897C19.8438 51.5855 18.5658 51.1879 17.7138 50.8566C16.5872 50.4211 15.7731 49.891 14.9305 49.0484C14.0785 48.1964 13.5578 47.3917 13.1224 46.2652C12.791 45.4132 12.3934 44.1257 12.2893 41.7685C12.1757 39.2124 12.1473 38.4456 12.1473 31.9798C12.1473 25.5045 12.1757 24.7377 12.2893 22.1911C12.3934 19.8244 12.791 18.5464 13.1224 17.6944C13.5578 16.5678 14.088 15.7537 14.9305 14.9111C15.7825 14.0591 16.5872 13.5384 17.7138 13.103C18.5658 12.7716 19.8533 12.374 22.2105 12.2699C24.7571 12.1563 25.5239 12.1279 31.9992 12.1279ZM31.9992 7.76367C25.4198 7.76367 24.5962 7.79207 22.0117 7.90567C19.4367 8.01928 17.6664 8.43582 16.1328 9.03222C14.5329 9.65703 13.1792 10.4806 11.8349 11.8344C10.4811 13.1787 9.65752 14.5324 9.03271 16.1229C8.4363 17.666 8.01976 19.4268 7.90616 22.0018C7.79256 24.5957 7.76416 25.4193 7.76416 31.9987C7.76416 38.5781 7.79256 39.4018 7.90616 41.9862C8.01976 44.5612 8.4363 46.3315 9.03271 47.8651C9.65752 49.465 10.4811 50.8187 11.8349 52.163C13.1792 53.5073 14.5329 54.3404 16.1234 54.9557C17.6664 55.5521 19.4273 55.9687 22.0022 56.0823C24.5867 56.1959 25.4103 56.2243 31.9897 56.2243C38.5692 56.2243 39.3928 56.1959 41.9772 56.0823C44.5522 55.9687 46.3225 55.5521 47.8561 54.9557C49.4465 54.3404 50.8003 53.5073 52.1446 52.163C53.4889 50.8187 54.3219 49.465 54.9373 47.8746C55.5337 46.3315 55.9502 44.5706 56.0638 41.9957C56.1774 39.4112 56.2058 38.5876 56.2058 32.0082C56.2058 25.4287 56.1774 24.6051 56.0638 22.0207C55.9502 19.4457 55.5337 17.6754 54.9373 16.1418C54.3409 14.5324 53.5173 13.1787 52.1635 11.8344C50.8192 10.4901 49.4655 9.65703 47.875 9.04169C46.332 8.44528 44.5711 8.02874 41.9961 7.91514C39.4022 7.79207 38.5786 7.76367 31.9992 7.76367Z" fill="#F45320"/>
<path d="M31.9991 19.5498C25.1262 19.5498 19.5503 25.1258 19.5503 31.9987C19.5503 38.8716 25.1262 44.4475 31.9991 44.4475C38.8721 44.4475 44.448 38.8716 44.448 31.9987C44.448 25.1258 38.8721 19.5498 31.9991 19.5498ZM31.9991 40.0738C27.5403 40.0738 23.924 36.4575 23.924 31.9987C23.924 27.5398 27.5403 23.9235 31.9991 23.9235C36.458 23.9235 40.0743 27.5398 40.0743 31.9987C40.0743 36.4575 36.458 40.0738 31.9991 40.0738Z" fill="#F45320"/>
<path d="M47.8468 19.0577C47.8468 20.667 46.5404 21.964 44.9405 21.964C43.3311 21.964 42.0342 20.6576 42.0342 19.0577C42.0342 17.4483 43.3406 16.1514 44.9405 16.1514C46.5404 16.1514 47.8468 17.4578 47.8468 19.0577Z" fill="#F45320"/>
</svg>
