<svg viewBox="0 0 32 33" fill="none" xmlns="http://www.w3.org/2000/svg">
<path d="M5.33317 16.4999C5.33317 13.3932 6.69317 10.6065 8.8265 8.65985L10.8665 10.6999C11.2798 11.1132 11.9998 10.8199 11.9998 10.2199V4.49985C11.9998 4.12652 11.7065 3.83319 11.3332 3.83319H5.61317C5.01317 3.83319 4.71984 4.55319 5.1465 4.96652L6.93317 6.76652C4.31984 9.19319 2.6665 12.6465 2.6665 16.4999C2.6665 22.8332 7.09317 28.1399 13.0132 29.4999C13.8532 29.6865 14.6665 29.0599 14.6665 28.1932C14.6665 27.5665 14.2265 27.0332 13.6132 26.8865C8.87984 25.8065 5.33317 21.5665 5.33317 16.4999ZM29.3332 16.4999C29.3332 10.1665 24.9065 4.85985 18.9865 3.49985C18.1465 3.31318 17.3332 3.93985 17.3332 4.80652C17.3332 5.43319 17.7732 5.96652 18.3865 6.11319C23.1198 7.19319 26.6665 11.4332 26.6665 16.4999C26.6665 19.6065 25.3065 22.3932 23.1732 24.3399L21.1332 22.2999C20.7198 21.8865 19.9998 22.1799 19.9998 22.7799V28.4999C19.9998 28.8732 20.2932 29.1665 20.6665 29.1665H26.3865C26.9865 29.1665 27.2798 28.4465 26.8532 28.0332L25.0665 26.2332C27.6798 23.8065 29.3332 20.3532 29.3332 16.4999Z" fill="#00C844"/>
<path d="M15.2103 10.8913C16.3952 9.7064 18.1696 9.46471 19.5961 10.1603L17.4563 12.3002C17.2264 12.5301 17.2264 12.9015 17.4563 13.1314L18.3936 14.0687C18.6235 14.3045 18.9948 14.3045 19.2247 14.0687L21.3646 11.9288C22.0543 13.3613 21.8126 15.1239 20.6277 16.3087C19.5313 17.4052 17.9279 17.6941 16.5661 17.1812L11.8737 21.8736C11.2666 22.4808 10.288 22.4808 9.68672 21.8736C9.07954 21.2664 9.07954 20.2878 9.68672 19.6866L14.3555 15.0119C13.8132 13.6324 14.0961 12.0054 15.2103 10.8913Z" fill="#00C844"/>
</svg>
