<svg width="200" height="201" viewBox="0 0 200 201" fill="none" xmlns="http://www.w3.org/2000/svg">
<path fill-rule="evenodd" clip-rule="evenodd" d="M58.921 43.541C60.4996 41.1829 63.1504 39.7676 65.9881 39.7676H134.014C136.877 39.7676 139.528 41.2062 141.094 43.5608L141.098 43.5666L158.563 69.6553C160.479 72.5181 160.479 76.2544 158.563 79.1172L144.247 100.501L158.487 121.773C158.672 122.04 158.842 122.319 158.997 122.609C160.476 125.378 160.309 128.737 158.562 131.345L141.08 157.459C139.502 159.817 136.851 161.233 134.013 161.233L65.9863 161.233C65.9584 161.234 66.0141 161.233 65.9863 161.233C63.1486 161.233 60.4979 159.818 58.9193 157.46L41.4374 131.346C39.5209 128.483 39.5209 124.747 41.4374 121.884L55.7526 100.5L41.4382 79.1173C39.6918 76.5086 39.5246 73.1499 41.0033 70.3807C41.1547 70.097 41.3211 69.8239 41.5013 69.5623L58.921 43.541ZM44.433 71.5567L61.8674 45.5135C62.7879 44.1385 64.3335 43.3132 65.9881 43.3132H134.014C135.684 43.3132 137.231 44.1534 138.144 45.528L155.616 71.6277C156.734 73.297 156.734 75.4755 155.616 77.1448L140.64 99.5152C140.241 100.112 140.241 100.891 140.641 101.488L155.558 123.772C155.671 123.933 155.775 124.102 155.869 124.279C156.732 125.893 156.634 127.852 155.616 129.373L138.134 155.487C137.214 156.862 135.668 157.687 134.013 157.687L65.9863 157.688C64.3317 157.688 62.7861 156.862 61.8657 155.487L44.3838 129.373C43.2663 127.704 43.2663 125.525 44.3838 123.856L59.3593 101.486C59.7588 100.889 59.7588 100.11 59.3593 99.5137L44.3846 77.1448C43.3663 75.6237 43.2688 73.6654 44.131 72.0507C44.2227 71.879 44.3236 71.7142 44.433 71.5567ZM135.567 118.11H88.0095L81.9143 109.005H129.472L135.567 118.11ZM135.568 135.119L129.472 144.224H81.9151L88.0103 135.119H135.568ZM64.4335 65.8817H111.991L118.086 56.7764H70.529L64.4335 65.8817ZM134.014 85.2128L141.261 74.3862L134.014 63.5597L126.766 74.3862L134.014 85.2128ZM111.99 82.8907L118.085 91.996H70.528L64.4325 82.8907H111.99ZM73.2341 126.615L65.9863 137.441L58.7385 126.615L65.9863 115.788L73.2341 126.615ZM87.0629 121.656C86.4713 121.656 85.9187 121.361 85.5897 120.869L77.1208 108.218C76.3323 107.041 77.1765 105.459 78.594 105.459H130.418C131.01 105.459 131.562 105.754 131.891 106.246L140.36 118.897C141.149 120.074 140.304 121.656 138.887 121.656H87.0629ZM140.361 134.333C141.15 133.155 140.305 131.573 138.888 131.573H87.0637C86.4722 131.573 85.9196 131.869 85.5905 132.36L77.1217 145.011C76.3332 146.189 77.1774 147.77 78.5949 147.77H130.419C131.011 147.77 131.563 147.475 131.892 146.983L140.361 134.333ZM59.6401 66.6683C58.8515 67.8462 59.6958 69.4274 61.1133 69.4274H112.937C113.529 69.4274 114.081 69.1323 114.411 68.6407L122.88 55.9897C123.668 54.8118 122.824 53.2307 121.406 53.2307H69.5824C68.9908 53.2307 68.4383 53.5257 68.1092 54.0173L59.6401 66.6683ZM132.541 89.3859C133.243 90.4347 134.785 90.4347 135.487 89.3859L144.868 75.3725C145.268 74.7757 145.268 73.9968 144.868 73.4L135.487 59.3866C134.785 58.3378 133.243 58.3378 132.541 59.3866L123.159 73.4C122.76 73.9968 122.76 74.7757 123.159 75.3725L132.541 89.3859ZM114.41 80.1316C114.081 79.6401 113.528 79.345 112.936 79.345H61.1123C59.6948 79.345 58.8506 80.9262 59.6391 82.1041L68.1082 94.7551C68.4373 95.2466 68.9899 95.5417 69.5814 95.5417H121.406C122.823 95.5417 123.667 93.9606 122.879 92.7826L114.41 80.1316ZM76.8407 127.601C77.2402 127.004 77.2402 126.225 76.8407 125.629L67.4595 111.615C66.7574 110.566 65.2152 110.566 64.5131 111.615L55.1319 125.629C54.7324 126.225 54.7324 127.004 55.1319 127.601L64.5131 141.614C65.2152 142.663 66.7574 142.663 67.4595 141.614L76.8407 127.601Z" fill="#F45320"/>
</svg>
