<svg viewBox="0 0 32 33" fill="none" xmlns="http://www.w3.org/2000/svg">
<path d="M3.71352 9.12765C4.38928 9.12765 4.94217 8.57475 4.94217 7.89899V6.67034C4.94217 5.99458 5.49507 5.44168 6.17083 5.44168H7.39948C8.07524 5.44168 8.62814 4.88879 8.62814 4.21303C8.62814 3.53727 8.07524 2.98438 7.39948 2.98438H6.17083C4.13126 2.98438 2.48486 4.63077 2.48486 6.67034V7.89899C2.48486 8.57475 3.03776 9.12765 3.71352 9.12765Z" fill="#B04CFF"/>
<path d="M7.39948 27.558H6.17083C5.49507 27.558 4.94217 27.0051 4.94217 26.3294V25.1007C4.94217 24.425 4.38928 23.8721 3.71352 23.8721C3.03776 23.8721 2.48486 24.425 2.48486 25.1007V26.3294C2.48486 28.3689 4.13126 30.0153 6.17083 30.0153H7.39948C8.07524 30.0153 8.62814 29.4624 8.62814 28.7867C8.62814 28.1109 8.07524 27.558 7.39948 27.558Z" fill="#B04CFF"/>
<path d="M25.8289 2.98438H24.6002C23.9245 2.98438 23.3716 3.53727 23.3716 4.21303C23.3716 4.88879 23.9245 5.44168 24.6002 5.44168H25.8289C26.5047 5.44168 27.0575 5.99458 27.0575 6.67034V7.89899C27.0575 8.57475 27.6104 9.12765 28.2862 9.12765C28.962 9.12765 29.5149 8.57475 29.5149 7.89899V6.67034C29.5149 4.63077 27.8685 2.98438 25.8289 2.98438Z" fill="#B04CFF"/>
<path d="M28.2862 23.8721C27.6104 23.8721 27.0575 24.425 27.0575 25.1007V26.3294C27.0575 27.0051 26.5047 27.558 25.8289 27.558H24.6002C23.9245 27.558 23.3716 28.1109 23.3716 28.7867C23.3716 29.4624 23.9245 30.0153 24.6002 30.0153H25.8289C27.8685 30.0153 29.5149 28.3689 29.5149 26.3294V25.1007C29.5149 24.425 28.962 23.8721 28.2862 23.8721Z" fill="#B04CFF"/>
<path d="M24.6006 20.0268V12.9743C24.6006 12.0897 24.1337 11.2788 23.3719 10.8488L17.2287 7.31025C16.8478 7.08909 16.43 6.97852 16 6.97852C15.57 6.97852 15.1522 7.08909 14.7713 7.31025L8.62807 10.8365C7.8663 11.2788 7.39941 12.0897 7.39941 12.9743V20.0268C7.39941 20.9115 7.8663 21.7224 8.62807 22.1524L14.7713 25.6909C15.1522 25.9121 15.57 26.0227 16 26.0227C16.43 26.0227 16.8478 25.9121 17.2287 25.6909L23.3719 22.1524C24.1337 21.7224 24.6006 20.9115 24.6006 20.0268ZM14.7713 22.8527L9.85672 20.0268V14.3382L14.7713 17.2009V22.8527ZM16 15.0753L11.1345 12.2372L16 9.43582L20.8655 12.2372L16 15.0753ZM22.1433 20.0268L17.2287 22.8527V17.2009L22.1433 14.3382V20.0268Z" fill="#B04CFF"/>
</svg>
